<mxfile host="app.diagrams.net" modified="2023-11-03T19:19:58.170Z" agent="Mozilla/5.0 (X11; Linux x86_64) AppleWebKit/537.36 (KHTML, like Gecko) Chrome/116.0.5845.962 YaBrowser/23.9.1.962 Yowser/2.5 Safari/537.36" version="22.0.8" etag="e2RYUT2nejUeaFhzfB0v" type="github">
  <diagram name="Страница — 1" id="4jHOXPmgGyusObuowAQF">
    <mxGraphModel>
      <root>
        <mxCell id="0" />
        <mxCell id="1" parent="0" />
      </root>
    </mxGraphModel>
  </diagram>
</mxfile>
